<svg width="40" height="40" viewBox="0 0 40 40" fill="none" xmlns="http://www.w3.org/2000/svg">
                                  <circle opacity="0.5" cx="20" cy="20" r="19.5" stroke="#CBD5E1"></circle>
                                  <path opacity="0.4" d="M29 25V18C29 15.7909 27.2987 14 25.2 14H22.6667C21.8445 14 21.0444 13.7193 20.3867 13.2L18.6133 11.8C17.9556 11.2807 17.1555 11 16.3333 11H13.8C11.7013 11 10 12.7909 10 15V25C10 27.2091 11.7013 29 13.8 29H25.2C27.2987 29 29 27.2091 29 25Z" fill="#22C55E"></path>
                                  <path fill-rule="evenodd" clip-rule="evenodd" d="M23.4939 18.4356C23.8056 18.7083 23.8372 19.1822 23.5645 19.4939L20.6946 22.7738C20.0779 23.4786 19.0156 23.5729 18.2843 22.9879L16.5315 21.5857C16.2081 21.3269 16.1556 20.8549 16.4144 20.5315C16.6731 20.208 17.1451 20.1556 17.4685 20.4144L19.2214 21.8166C19.3258 21.9002 19.4776 21.8867 19.5657 21.786L22.4356 18.5061C22.7084 18.1944 23.1822 18.1628 23.4939 18.4356Z" fill="#22C55E"></path>
                                </svg>