<svg width="60" height="60" viewBox="0 0 60 60" fill="none" xmlns="http://www.w3.org/2000/svg">
                            <circle cx="30" cy="30" r="30" fill="#22C55E"></circle>
                            <path d="M29.9703 43.7392C27.4494 43.7392 24.9286 43.7512 22.4077 43.7352C20.2721 43.7232 19.0338 42.51 19.0197 40.3809C18.9955 37.0226 18.9915 33.6643 19.0197 30.306C19.0378 28.2088 20.3265 26.9736 22.4481 26.9696C27.4212 26.9597 32.3964 26.9617 37.3695 26.9696C39.604 26.9736 40.8564 28.2208 40.8644 30.4457C40.8745 33.7381 40.8786 37.0306 40.8644 40.323C40.8544 42.506 39.6242 43.7252 37.43 43.7372C34.9434 43.7492 32.4569 43.7392 29.9703 43.7392ZM27.5321 33.7242C27.6108 33.9217 27.6592 34.5403 27.9919 34.7977C28.8954 35.4981 28.7542 36.404 28.7563 37.3159C28.7563 37.7469 28.6272 38.2538 28.8107 38.589C29.0467 39.018 29.5367 39.5827 29.9219 39.5867C30.3131 39.5907 30.8496 39.0499 31.0613 38.6229C31.261 38.2179 31.1319 37.6492 31.1319 37.1543C31.1319 36.3022 31.0936 35.522 31.868 34.8216C32.6041 34.1552 32.4871 32.8881 31.8841 32.062C31.2811 31.2359 30.2002 30.8807 29.2019 31.18C28.2521 31.4653 27.5483 32.4152 27.5321 33.7242Z" fill="white"></path>
                            <path d="M37.5315 26.0269C36.3356 26.0269 35.2466 26.0269 34.0345 26.0269C34.0345 25.1629 34.0446 24.3447 34.0325 23.5246C33.9982 21.0822 32.2397 19.2345 29.9467 19.2225C27.6497 19.2105 25.8851 21.0423 25.8448 23.4967C25.8306 24.3188 25.8427 25.1429 25.8427 26.0249C24.6448 26.0249 23.5558 26.0249 22.4729 26.0249C21.7126 21.0942 23.5054 17.4326 27.7546 16.1136C32.5603 14.621 37.3984 18.127 37.5274 23.1096C37.5516 24.0634 37.5315 25.0192 37.5315 26.0269Z" fill="white"></path>
                          </svg>