<svg width="40" height="40" viewBox="0 0 40 40" fill="none" xmlns="http://www.w3.org/2000/svg">
                                  <circle opacity="0.5" cx="20" cy="20" r="19.5" class="stroke-white dark:stroke-bgray-900"></circle>
                                  <path opacity="0.4" d="M21 16.86L21 14.3567C21 13.2506 20.1046 12.354 19 12.354L17.6667 12.354C17.2339 12.354 16.8129 12.2135 16.4667 11.9535L15.5333 11.2526C15.1871 10.9926 14.7661 10.8521 14.3333 10.8521L13 10.8521C11.8954 10.8521 11 11.7487 11 12.8547L11 16.86C11 17.966 11.8954 18.8626 13 18.8626L19 18.8626C20.1046 18.8626 21 17.966 21 16.86Z" class="fill-white dark:fill-bgray-900"></path>
                                  <path opacity="0.4" d="M29 28.8758L29 26.3725C29 25.2665 28.1046 24.3699 27 24.3699L25.6667 24.3699C25.2339 24.3699 24.8129 24.2294 24.4667 23.9694L23.5333 23.2684C23.1871 23.0085 22.7661 22.8679 22.3333 22.8679L21 22.8679C19.8954 22.8679 19 23.7645 19 24.8706L19 28.8758C19 29.9819 19.8954 30.8785 21 30.8785L27 30.8785C28.1046 30.8785 29 29.9819 29 28.8758Z" class="fill-white dark:fill-bgray-900"></path>
                                  <path fill-rule="evenodd" clip-rule="evenodd" d="M22.25 14.8572C22.25 14.4424 22.5858 14.1062 23 14.1062L25 14.1062C26.5188 14.1062 27.75 15.339 27.75 16.8598L27.75 22.3671C27.75 22.7819 27.4142 23.1181 27 23.1181C26.5858 23.1181 26.25 22.7819 26.25 22.3671L26.25 16.8598C26.25 16.1686 25.6904 15.6082 25 15.6082L23 15.6082C22.5858 15.6082 22.25 15.272 22.25 14.8572ZM13 20.1141C13.4142 20.1141 13.75 20.4504 13.75 20.8651L13.75 24.8704C13.75 25.5617 14.3096 26.1221 15 26.1221L17 26.1221C17.4142 26.1221 17.75 26.4583 17.75 26.873C17.75 27.2878 17.4142 27.624 17 27.624L15 27.624C13.4812 27.624 12.25 26.3912 12.25 24.8704L12.25 20.8651C12.25 20.4504 12.5858 20.1141 13 20.1141Z" class="fill-white dark:fill-bgray-900"></path>
                                </svg>