<svg width="60" height="60" viewBox="0 0 60 60" fill="none" xmlns="http://www.w3.org/2000/svg">
                            <circle cx="30" cy="30" r="30" fill="#2DD4BF"></circle>
                            <path d="M41.8283 27.5958C41.4072 29.0508 41.0641 30.4376 40.5806 31.7718C40.4617 32.101 39.8846 32.4672 39.5142 32.4711C35.1806 32.5217 30.8469 32.5042 26.5133 32.5061C25.8719 32.5061 25.4625 32.1906 25.3163 31.577C24.6301 28.7099 23.9381 25.8428 23.283 22.9698C23.0842 22.1011 23.4799 21.5654 24.3182 21.5596C27.8506 21.5362 31.383 21.5499 35.0032 21.5499C34.9603 23.4236 35.4711 25.0617 36.8922 26.3102C38.2822 27.5393 39.9256 27.9055 41.8283 27.5958Z" fill="white"></path>
                            <path d="M24.4176 33.5096C27.334 33.5096 30.1997 33.5096 33.0654 33.5096C34.9408 33.5096 36.8162 33.5057 38.6915 33.5116C39.5649 33.5135 40.0601 33.905 40.0835 34.5809C40.1069 35.2918 39.5961 35.7242 38.6877 35.7242C33.7224 35.7281 28.759 35.7281 23.7938 35.7242C22.7878 35.7242 22.5091 35.4788 22.2888 34.464C21.3452 30.1049 20.3939 25.7477 19.4679 21.3847C19.3587 20.8724 19.1579 20.5841 18.6296 20.4225C17.419 20.0524 16.2318 19.6044 15.0368 19.1837C14.0328 18.8292 13.6605 18.2877 13.9334 17.5924C14.2024 16.9048 14.7853 16.7295 15.7386 17.0606C17.2221 17.5748 18.692 18.128 20.1912 18.5955C20.9476 18.8311 21.3082 19.2577 21.4681 20.0212C22.3824 24.3589 23.3317 28.6889 24.2733 33.0207C24.3006 33.1493 24.3474 33.2778 24.4176 33.5096Z" fill="white"></path>
                            <path d="M35.6934 22.2151C35.6798 19.5116 37.8729 17.3145 40.5788 17.3243C43.23 17.332 45.4134 19.533 45.4095 22.1957C45.4056 24.8505 43.2144 27.0456 40.5573 27.0515C37.9022 27.0573 35.7071 24.8758 35.6934 22.2151ZM42.6257 20.057C41.7465 20.9978 40.8848 21.921 39.8614 23.0176C39.3721 22.3534 38.9763 21.8197 38.524 21.2081C38.0698 21.6834 37.7696 21.997 37.5747 22.2034C38.4051 23.0605 39.1986 23.8766 39.9316 24.6343C41.1207 23.4422 42.345 22.2171 43.6726 20.8867C43.4562 20.7153 43.1969 20.5089 42.9357 20.3024C42.8538 20.2342 42.77 20.1719 42.6257 20.057Z" fill="white"></path>
                            <path d="M37.4854 36.6242C39.2068 36.6086 40.6104 37.9603 40.6436 39.6666C40.6767 41.4021 39.2653 42.8259 37.5147 42.8259C35.805 42.8259 34.4072 41.4371 34.3994 39.7367C34.3936 38.0285 35.7699 36.6417 37.4854 36.6242ZM38.8929 39.7153C38.891 38.9615 38.2984 38.3499 37.5537 38.3343C36.7817 38.3168 36.1384 38.9537 36.1423 39.7309C36.1462 40.4769 36.7485 41.0963 37.4854 41.1157C38.2574 41.1352 38.8968 40.5002 38.8929 39.7153Z" fill="white"></path>
                            <path d="M24.8751 42.825C23.1556 42.8113 21.7754 41.4304 21.7793 39.7261C21.7852 37.9672 23.179 36.6018 24.9491 36.6213C26.6569 36.6408 28.0273 38.0471 28.0078 39.7592C27.9864 41.4713 26.5906 42.8367 24.8751 42.825ZM26.2709 39.728C26.2728 38.945 25.6334 38.3159 24.8556 38.3353C24.1226 38.3548 23.4968 38.9879 23.4968 39.7163C23.4948 40.4467 24.1148 41.0876 24.8439 41.1129C25.6178 41.1401 26.2689 40.5071 26.2709 39.728Z" fill="white"></path>
                          </svg>